<svg width="37" height="37" viewBox="0 0 37 37" fill="none" xmlns="http://www.w3.org/2000/svg">
<path d="M19.078 18.9601C19.228 18.0601 19.028 16.4601 19.658 15.6901C20.2272 15.1512 20.7616 14.5767 21.258 13.9701C21.5164 13.4236 21.7239 12.8546 21.878 12.2701C22.1504 11.5405 22.5966 10.8883 23.178 10.3701C23.468 10.1201 23.818 9.79008 23.678 9.44008C23.626 9.33639 23.5498 9.24678 23.4558 9.17888C23.3618 9.11098 23.2527 9.06679 23.138 9.05008C22.138 8.80008 21.468 10.0501 20.738 10.8201C20.4682 11.0253 20.1764 11.1997 19.868 11.3401C19.488 11.5501 18.948 11.5601 18.548 11.7301C18.1118 11.9288 17.7257 12.2226 17.418 12.5901" stroke="#3B3B3B" stroke-width="0.75" stroke-miterlimit="5"/>
<path d="M20.3502 11.0705V3.66055C20.364 3.52987 20.352 3.39774 20.3148 3.27172C20.2775 3.14569 20.2158 3.02824 20.1331 2.92608C20.0505 2.82393 19.9485 2.73906 19.833 2.67634C19.7176 2.61362 19.5909 2.57427 19.4602 2.56055C19.3286 2.57304 19.2008 2.61149 19.0842 2.67367C18.9676 2.73586 18.8644 2.82054 18.7807 2.92283C18.697 3.02512 18.6345 3.14298 18.5966 3.26961C18.5587 3.39623 18.5464 3.52911 18.5602 3.66055V9.41054" stroke="#3B3B3B" stroke-width="0.75" stroke-miterlimit="5"/>
<path d="M18.5197 9.41273V2.65273C18.5335 2.52129 18.5211 2.38842 18.4833 2.2618C18.4454 2.13517 18.3828 2.01731 18.2991 1.91502C18.2154 1.81273 18.1123 1.72805 17.9957 1.66586C17.8791 1.60368 17.7513 1.56523 17.6197 1.55273C17.489 1.56646 17.3623 1.6058 17.2468 1.66852C17.1313 1.73125 17.0294 1.81611 16.9467 1.91827C16.864 2.02043 16.8023 2.13788 16.7651 2.26391C16.7279 2.38993 16.7158 2.52206 16.7297 2.65273L16.6797 9.07273" stroke="#3B3B3B" stroke-width="0.75" stroke-miterlimit="5"/>
<path d="M16.6791 9.4132V3.2832C16.6804 3.03444 16.5889 2.79414 16.4224 2.60923C16.256 2.42432 16.0267 2.30808 15.7791 2.2832V2.2832C15.5334 2.31039 15.3065 2.42764 15.1421 2.61231C14.9778 2.79698 14.8876 3.03599 14.8891 3.2832L14.8691 9.3432" stroke="#3B3B3B" stroke-width="0.75" stroke-miterlimit="5"/>
<path d="M13.0098 12.3423V4.57227C13.0083 4.32505 13.0984 4.08604 13.2628 3.90137C13.4271 3.7167 13.6541 3.59946 13.8998 3.57227C14.1455 3.59946 14.3724 3.7167 14.5368 3.90137C14.7012 4.08604 14.7913 4.32505 14.7898 4.57227L14.8398 9.57227" stroke="#3B3B3B" stroke-width="0.75" stroke-miterlimit="5"/>
<path d="M14.429 19.461C14.4795 18.2368 14.2928 17.0143 13.879 15.861C13.739 15.541 13.549 15.231 13.419 14.861C13.2828 14.5094 13.1855 14.1439 13.129 13.771C13.034 13.1995 12.9938 12.6202 13.009 12.041" stroke="#3B3B3B" stroke-width="0.75" stroke-miterlimit="5"/>
<path d="M29.2996 29.0529C29.4496 28.1529 29.2396 25.8329 29.8696 25.0529C30.4411 24.5198 30.9756 23.9485 31.4696 23.3429C31.728 22.7965 31.9355 22.2274 32.0896 21.6429C32.362 20.9133 32.8083 20.2611 33.3896 19.7429C33.6796 19.4929 34.0296 19.1629 33.8896 18.8129C33.8385 18.7095 33.7624 18.6205 33.668 18.5541C33.5737 18.4877 33.4642 18.4461 33.3496 18.4329C32.3496 18.1829 31.6796 19.4329 30.9496 20.1929C30.6711 20.3873 30.3728 20.5515 30.0596 20.6829C29.6696 20.8829 29.1296 20.8929 28.7296 21.0629C28.2935 21.2616 27.9074 21.5555 27.5996 21.9229" stroke="#3B3B3B" stroke-width="0.75" stroke-miterlimit="5"/>
<path d="M30.5591 20.4416V13.0316C30.573 12.901 30.561 12.7688 30.5237 12.6428C30.4865 12.5168 30.4248 12.3993 30.3421 12.2972C30.2595 12.195 30.1575 12.1102 30.042 12.0474C29.9265 11.9847 29.7998 11.9454 29.6691 11.9316V11.9316C29.5376 11.9441 29.4098 11.9826 29.2932 12.0448C29.1765 12.107 29.0734 12.1916 28.9897 12.2939C28.906 12.3962 28.8434 12.5141 28.8056 12.6407C28.7677 12.7673 28.7553 12.9002 28.7691 13.0316V18.7816" stroke="#3B3B3B" stroke-width="0.75" stroke-miterlimit="5"/>
<path d="M28.7291 18.7816V12.0316C28.7429 11.9002 28.7306 11.7673 28.6927 11.6407C28.6548 11.5141 28.5923 11.3962 28.5086 11.2939C28.4249 11.1916 28.3217 11.107 28.2051 11.0448C28.0885 10.9826 27.9607 10.9441 27.8291 10.9316V10.9316C27.6984 10.9454 27.5717 10.9847 27.4563 11.0474C27.3408 11.1102 27.2388 11.195 27.1562 11.2972C27.0735 11.3993 27.0118 11.5168 26.9746 11.6428C26.9373 11.7688 26.9253 11.901 26.9391 12.0316L26.8691 18.4416" stroke="#3B3B3B" stroke-width="0.75" stroke-miterlimit="5"/>
<path d="M26.8693 18.7804V12.6504C26.8708 12.4032 26.7807 12.1642 26.6163 11.9795C26.452 11.7948 26.225 11.6776 25.9793 11.6504C25.7318 11.6753 25.5024 11.7915 25.336 11.9764C25.1696 12.1613 25.078 12.4016 25.0793 12.6504L25.0293 18.7404" stroke="#3B3B3B" stroke-width="0.75" stroke-miterlimit="5"/>
<path d="M23.2207 21.7512V13.9512C23.2192 13.704 23.3093 13.465 23.4737 13.2803C23.6381 13.0956 23.865 12.9784 24.1107 12.9512V12.9512C24.3564 12.9784 24.5834 13.0956 24.7477 13.2803C24.9121 13.465 25.0022 13.704 25.0007 13.9512L25.0507 18.9012" stroke="#3B3B3B" stroke-width="0.75" stroke-miterlimit="5"/>
<path d="M24.638 28.8321C24.6934 27.6076 24.5065 26.3842 24.088 25.2321C23.948 24.9121 23.758 24.6021 23.628 24.2321C23.4918 23.8805 23.3945 23.5149 23.338 23.1421C23.243 22.5706 23.2028 21.9913 23.218 21.4121" stroke="#3B3B3B" stroke-width="0.75" stroke-miterlimit="5"/>
<path d="M8.3875 29.0529C8.5375 28.1529 8.3275 25.8329 8.9575 25.0529C9.52895 24.5198 10.0635 23.9485 10.5575 23.3429C10.8159 22.7965 11.0234 22.2274 11.1775 21.6429C11.4499 20.9133 11.8962 20.2611 12.4775 19.7429C12.7675 19.4929 13.1175 19.1629 12.9775 18.8129C12.9264 18.7095 12.8502 18.6205 12.7559 18.5541C12.6616 18.4877 12.5521 18.4461 12.4375 18.4329C11.4375 18.1829 10.7675 19.4329 10.0375 20.1929C9.759 20.3873 9.46067 20.5515 9.1475 20.6829C8.7575 20.8829 8.2175 20.8929 7.8175 21.0629C7.38135 21.2616 6.99524 21.5555 6.6875 21.9229" stroke="#3B3B3B" stroke-width="0.75" stroke-miterlimit="5"/>
<path d="M9.64886 20.4416V13.0316C9.66272 12.901 9.65069 12.7688 9.61345 12.6428C9.57621 12.5168 9.5145 12.3993 9.43185 12.2972C9.34919 12.195 9.24721 12.1102 9.13173 12.0474C9.01626 11.9847 8.88955 11.9454 8.75886 11.9316C8.62817 11.9454 8.50146 11.9847 8.38599 12.0474C8.27051 12.1102 8.16853 12.195 8.08587 12.2972C8.00322 12.3993 7.94151 12.5168 7.90427 12.6428C7.86703 12.7688 7.855 12.901 7.86886 13.0316V18.7816" stroke="#3B3B3B" stroke-width="0.75" stroke-miterlimit="5"/>
<path d="M7.86784 18.7816V12.0316C7.88165 11.9002 7.86927 11.7673 7.83141 11.6407C7.79355 11.5141 7.73096 11.3962 7.64727 11.2939C7.56358 11.1916 7.46044 11.107 7.34382 11.0448C7.2272 10.9826 7.09941 10.9441 6.96784 10.9316C6.83715 10.9454 6.71045 10.9847 6.59497 11.0474C6.47949 11.1102 6.37751 11.195 6.29486 11.2972C6.2122 11.3993 6.15049 11.5168 6.11325 11.6428C6.07602 11.7688 6.06398 11.901 6.07784 12.0316V18.4416" stroke="#3B3B3B" stroke-width="0.75" stroke-miterlimit="5"/>
<path d="M5.97867 18.7804V12.6504C5.98017 12.4032 5.89004 12.1642 5.72569 11.9795C5.56133 11.7948 5.33439 11.6776 5.08867 11.6504C4.84115 11.6753 4.61178 11.7915 4.44537 11.9764C4.27895 12.1613 4.18743 12.4016 4.18867 12.6504L4.13867 18.7404" stroke="#3B3B3B" stroke-width="0.75" stroke-miterlimit="5"/>
<path d="M2.30861 21.7512V13.9512C2.30711 13.704 2.39724 13.465 2.5616 13.2803C2.72595 13.0956 2.95289 12.9784 3.19861 12.9512V12.9512C3.44614 12.976 3.6755 13.0923 3.84192 13.2772C4.00834 13.4621 4.09986 13.7024 4.09861 13.9512V18.9012" stroke="#3B3B3B" stroke-width="0.75" stroke-miterlimit="5"/>
<path d="M3.72818 28.8321C3.78363 27.6076 3.59672 26.3842 3.17818 25.2321C3.03818 24.9121 2.85818 24.6021 2.71818 24.2321C2.58198 23.8805 2.48473 23.5149 2.42818 23.1421C2.33816 22.57 2.29801 21.9912 2.30818 21.4121" stroke="#3B3B3B" stroke-width="0.75" stroke-miterlimit="5"/>
<path d="M18.9285 36.0529C19.0785 35.1529 18.9285 32.8229 19.4985 32.0529C20.0749 31.5248 20.6098 30.9531 21.0985 30.3429C21.3569 29.7964 21.5644 29.2274 21.7185 28.6429C21.9909 27.9161 22.4373 27.2672 23.0185 26.7529C23.3085 26.5029 23.6585 26.1629 23.5185 25.8129C23.467 25.7118 23.3919 25.6246 23.2997 25.5584C23.2075 25.4923 23.1008 25.4493 22.9885 25.4329C21.9885 25.1829 21.3085 26.4329 20.5885 27.2029C20.304 27.3903 20.0027 27.551 19.6885 27.6829C19.3085 27.8929 18.7585 27.8929 18.3585 28.0629C17.9239 28.2642 17.5383 28.5576 17.2285 28.9229" stroke="#3B3B3B" stroke-width="0.75" stroke-miterlimit="5"/>
<path d="M20.1894 27.4299V20.0199C20.2032 19.8892 20.1912 19.7571 20.154 19.6311C20.1167 19.5051 20.055 19.3876 19.9724 19.2855C19.8897 19.1833 19.7877 19.0984 19.6722 19.0357C19.5568 18.973 19.4301 18.9336 19.2994 18.9199C19.1687 18.9336 19.042 18.973 18.9265 19.0357C18.811 19.0984 18.709 19.1833 18.6264 19.2855C18.5437 19.3876 18.482 19.5051 18.4448 19.6311C18.4075 19.7571 18.3955 19.8892 18.4094 20.0199L18.3594 25.7699" stroke="#3B3B3B" stroke-width="0.75" stroke-miterlimit="5"/>
<path d="M18.3595 25.7699V19.0199C18.3733 18.8885 18.361 18.7556 18.3231 18.629C18.2852 18.5024 18.2227 18.3845 18.139 18.2822C18.0553 18.1799 17.9521 18.0952 17.8355 18.033C17.7189 17.9709 17.5911 17.9324 17.4595 17.9199V17.9199C17.3288 17.9336 17.2021 17.973 17.0867 18.0357C16.9712 18.0984 16.8692 18.1833 16.7865 18.2855C16.7039 18.3876 16.6422 18.5051 16.6049 18.6311C16.5677 18.7571 16.5557 18.8892 16.5695 19.0199L16.5195 25.4299" stroke="#3B3B3B" stroke-width="0.75" stroke-miterlimit="5"/>
<path d="M16.5205 25.7726V19.6426C16.522 19.3954 16.4319 19.1564 16.2675 18.9717C16.1031 18.787 15.8762 18.6698 15.6305 18.6426C15.383 18.6675 15.1536 18.7837 14.9872 18.9686C14.8208 19.1535 14.7292 19.3938 14.7305 19.6426V25.7326" stroke="#3B3B3B" stroke-width="0.75" stroke-miterlimit="5"/>
<path d="M12.8692 28.7414V20.9414C12.8677 20.6942 12.9578 20.4552 13.1221 20.2705C13.2865 20.0858 13.5134 19.9686 13.7592 19.9414C14.0067 19.9663 14.236 20.0825 14.4025 20.2674C14.5689 20.4523 14.6604 20.6926 14.6592 20.9414L14.7092 25.8914" stroke="#3B3B3B" stroke-width="0.75" stroke-miterlimit="5"/>
<path d="M14.2705 35.8212C14.3267 34.5999 14.1398 33.3796 13.7205 32.2312C13.5805 31.9012 13.4005 31.5912 13.2605 31.2312C13.1289 30.878 13.0317 30.513 12.9705 30.1412C12.8894 29.5817 12.856 29.0163 12.8705 28.4512" stroke="#3B3B3B" stroke-width="0.75" stroke-miterlimit="5"/>
</svg>
