<svg width="37" height="37" viewBox="0 0 37 37" fill="none" xmlns="http://www.w3.org/2000/svg">
<path d="M20.3925 4.94276C17.7242 3.89048 11.712 1.78592 10.9228 3.36434C10.1336 4.94276 11.7112 5.61827 13.9661 6.06925C16.221 6.52023 20.6174 10.579 22.6468 12.2702C24.2703 13.6231 28.284 13.9613 30.0879 13.9613C29.6745 12.082 28.7801 7.98514 28.5095 6.63297C28.1713 4.94276 25.4654 4.94371 23.5488 3.36434C21.6321 1.78497 19.1266 0.673208 14.3913 3.04179" stroke="#3B3B3B" stroke-width="0.75"/>
<path d="M16.2833 31.1647C18.9515 32.2169 24.9638 34.3215 25.753 32.7431C26.5422 31.1647 24.9646 30.4891 22.7097 30.0382C20.4548 29.5872 16.0584 25.5284 14.029 23.8372C12.4054 22.4843 8.39175 22.1461 6.58785 22.1461C7.00124 24.0255 7.89568 28.1223 8.16627 29.4745C8.5045 31.1647 11.2104 31.1637 13.127 32.7431C15.0437 34.3225 17.5492 35.4342 22.2844 33.0656" stroke="#3B3B3B" stroke-width="0.75"/>
<path d="M15.0197 6.4388L8.72154 9.60246C8.39206 9.76983 8.00982 9.80031 7.65798 9.68729C7.30615 9.57426 7.01317 9.32687 6.84281 8.99893V8.99893C6.67588 8.6709 6.64566 8.29011 6.75876 7.93985C6.87186 7.58959 7.11908 7.29839 7.44634 7.12994L11.4374 5.01758" stroke="#3B3B3B" stroke-width="0.75" stroke-miterlimit="5"/>
<path d="M19.6183 9.90625L14.4785 12.0867C14.1387 12.2267 13.7575 12.2276 13.417 12.0892C13.0766 11.9508 12.8041 11.6843 12.6582 11.3469" stroke="#3B3B3B" stroke-width="0.75" stroke-miterlimit="5"/>
<path d="M17.8562 8.54102L11.4608 11.8215C11.1313 11.9889 10.749 12.0193 10.3972 11.9063C10.0454 11.7933 9.7524 11.5459 9.58203 11.218V11.218" stroke="#3B3B3B" stroke-width="0.75" stroke-miterlimit="5"/>
<path d="M16.5796 7.34375L8.62658 11.403C8.30522 11.5669 7.93279 11.5996 7.58777 11.4943C7.24276 11.3889 6.9521 11.1538 6.77705 10.8384V10.8384C6.68514 10.7092 6.62457 10.5603 6.60011 10.4036C6.57566 10.2469 6.588 10.0867 6.63617 9.93561C6.68433 9.78452 6.76698 9.6467 6.8776 9.53307C6.98822 9.41943 7.12376 9.3331 7.2735 9.28089" stroke="#3B3B3B" stroke-width="0.75" stroke-miterlimit="5"/>
<path d="M21.6561 29.6667L27.9542 26.503C28.2837 26.3356 28.666 26.3052 29.0178 26.4182C29.3696 26.5312 29.6626 26.7786 29.833 27.1065V27.1065C29.9999 27.4346 30.0301 27.8154 29.917 28.1656C29.8039 28.5159 29.5567 28.8071 29.2294 28.9755L25.2384 31.0879" stroke="#3B3B3B" stroke-width="0.75" stroke-miterlimit="5"/>
<path d="M17.0575 26.2012L22.1973 24.0207C22.5371 23.8807 22.9183 23.8799 23.2587 24.0182C23.5992 24.1566 23.8717 24.4232 24.0176 24.7605" stroke="#3B3B3B" stroke-width="0.75" stroke-miterlimit="5"/>
<path d="M18.8195 27.5664L25.215 24.2859C25.5445 24.1186 25.9267 24.0881 26.2786 24.2011C26.6304 24.3141 26.9234 24.5615 27.0937 24.8895V24.8895" stroke="#3B3B3B" stroke-width="0.75" stroke-miterlimit="5"/>
<path d="M20.0962 28.7637L28.0492 24.7044C28.3706 24.5406 28.743 24.5078 29.088 24.6132C29.433 24.7185 29.7237 24.9536 29.8987 25.269V25.269C29.9906 25.3983 30.0512 25.5471 30.0757 25.7038C30.1001 25.8605 30.0878 26.0207 30.0396 26.1718C29.9915 26.3229 29.9088 26.4607 29.7982 26.5744C29.6876 26.688 29.552 26.7743 29.4023 26.8265" stroke="#3B3B3B" stroke-width="0.75" stroke-miterlimit="5"/>
<path d="M18.1478 15.0965C18.0893 15.0477 18.0503 14.9989 18.0015 14.9501C17.8811 14.8196 17.7506 14.6989 17.6111 14.589C17.1331 14.2582 16.5443 14.1286 15.9716 14.228C15.6973 14.2741 15.4348 14.3738 15.1991 14.5214C14.9633 14.6689 14.759 14.8615 14.5977 15.0881C14.4364 15.3146 14.3213 15.5707 14.2589 15.8418C14.1966 16.1128 14.1883 16.3935 14.2344 16.6677C14.3109 17.1322 14.5291 17.5617 14.859 17.8974L18.0795 21.3033L18.1381 21.3814L18.2454 21.2643L19.2214 20.2201C19.963 19.4198 20.7243 18.6293 21.466 17.8291C21.7225 17.5675 21.9069 17.2439 22.0009 16.8898C22.095 16.5358 22.0956 16.1633 22.0027 15.8089C21.9221 15.4361 21.734 15.0951 21.4617 14.828C21.1894 14.5609 20.8448 14.3794 20.4705 14.306C20.0985 14.2003 19.7044 14.2 19.3322 14.3051C18.96 14.4103 18.6243 14.6167 18.3625 14.9013L18.1478 15.0965Z" stroke="#3B3B3B" stroke-width="0.75" stroke-miterlimit="10"/>
</svg>
