<svg width="37" height="37" viewBox="0 0 37 37" fill="none" xmlns="http://www.w3.org/2000/svg">
<path d="M22.4219 4.23828C25.837 5.3151 28.9869 7.75474 30.8347 10.7986" stroke="#3B3B3B" stroke-miterlimit="10"/>
<path d="M32.4793 15.5664C32.6749 16.5558 32.7733 17.562 32.7729 18.5705C32.77 25.8184 27.7439 31.8664 21.0586 33.2671" stroke="#3B3B3B" stroke-miterlimit="10"/>
<path d="M22.4239 4.24083C21.0247 3.79729 19.5656 3.57115 18.0977 3.57031C9.99463 3.57031 3.42578 10.2869 3.42578 18.5728C3.42578 26.8587 9.99463 33.5743 18.0977 33.5743C19.0924 33.5748 20.0845 33.4726 21.0583 33.2694" stroke="#3B3B3B" stroke-miterlimit="10"/>
<path d="M26.9143 11.0941C26.5573 9.66403 25.3043 8.09568 24.0012 7.46873C23.593 7.27363 23.1564 7.10032 22.8467 6.76411C22.2538 6.1201 22.3163 5.11905 22.4233 4.23828" stroke="#3B3B3B" stroke-miterlimit="10"/>
<path d="M19.7956 33.4293C20.8298 31.4594 21.0192 28.6769 19.627 26.9532C19.1534 26.3689 18.5161 25.8963 18.2414 25.1936C17.8067 24.0836 18.4308 22.8467 19.1392 21.8978C19.2955 21.6894 19.4622 21.4801 19.6885 21.357C19.966 21.2064 20.2947 21.2055 20.6091 21.2074C21.6291 21.2159 22.7343 21.2528 23.5317 21.9035C23.9939 22.2823 24.3121 22.8411 24.833 23.1346C25.3539 23.4282 26.0367 23.4188 26.4534 23.8487C26.6703 24.0741 26.7773 24.3876 26.8323 24.7011C26.9183 25.2122 26.8826 25.7364 26.7283 26.2311C26.574 26.7259 26.3052 27.1774 25.9439 27.5489C25.7015 27.7923 25.4126 28.0064 25.2743 28.3236C25.0669 28.8038 25.2668 29.3569 25.2526 29.8816C25.2526 32.2315 22.2002 32.6773 21.0542 33.2739" stroke="#3B3B3B" stroke-miterlimit="10"/>
<path d="M8.12109 7.64096C8.2802 9.54835 8.43836 11.666 8.59463 13.5743C8.67986 14.6019 8.78404 15.6759 9.37122 16.5462C9.94799 17.3986 10.9812 17.9602 12.0571 18.0123C12.3905 18.0284 12.738 18.0009 13.0458 18.1212C13.5989 18.3371 13.8272 18.9347 14.1103 19.4282C14.4401 19.9982 14.8971 20.4844 15.4457 20.8488C15.8435 21.1139 16.3075 21.3223 16.7943 21.3138C17.2811 21.3052 17.7869 21.0429 17.9384 20.6101C18.0899 20.1773 17.873 19.7199 17.7149 19.2899C17.5567 18.8599 17.4791 18.322 17.8276 18.0057C18.213 17.6552 18.8646 17.7983 19.3514 17.5871C19.9623 17.3209 20.1422 16.5936 20.1706 15.9638C20.199 15.334 20.1706 14.6379 20.6006 14.1539C21.1243 13.5573 22.1585 13.4825 22.5894 12.828C22.9569 12.2759 22.7372 11.5552 22.4578 10.9595C22.2106 10.432 21.8895 9.89214 21.3535 9.61654C20.4367 9.14301 19.2775 9.61654 18.2651 9.3741C17.3503 9.15532 16.6845 8.36357 16.4401 7.51027C16.1958 6.65696 16.71 4.62645 16.9137 3.76367" stroke="#3B3B3B" stroke-miterlimit="10"/>
<path d="M33.7236 14.1844C34.2596 13.5896 34.4566 12.8784 34.2643 12.0885C34.0579 11.2437 33.5247 10.6897 32.696 10.4785C31.8673 10.2673 31.1523 10.487 30.5518 11.1045C30.478 11.1812 30.4079 11.2608 30.3283 11.347C30.2743 11.2892 30.2336 11.2381 30.1844 11.1917C30.0591 11.0562 29.9247 10.9296 29.7819 10.8128C29.2837 10.4492 28.7221 10.3545 28.1236 10.4425C26.9265 10.6187 26.1622 11.8073 26.3535 12.9788C26.433 13.4565 26.6548 13.8991 26.9899 14.2488C28.0822 15.4282 29.1723 16.6089 30.2601 17.7908C30.2814 17.817 30.301 17.8446 30.3189 17.8732L30.4334 17.7501L31.4354 16.6676C32.1997 15.8408 32.9697 15.0206 33.7236 14.1844Z" stroke="#3B3B3B" stroke-miterlimit="10"/>
</svg>
