<svg width="37" height="36" viewBox="0 0 37 36" fill="none" xmlns="http://www.w3.org/2000/svg">
<path d="M22.3957 26.7174C22.2486 23.1199 25.9011 20.985 27.8433 19.7527C30.215 18.2479 31.4281 16.7575 31.877 16.1233C31.9702 15.9915 32.1761 16.002 32.2383 16.1509C32.8262 17.5579 34.7869 22.9891 32.1542 27.4493C29.1027 32.6191 25.1611 30.9383 25.1611 30.9383" stroke="#3B3B3B" stroke-linecap="round" stroke-linejoin="round"/>
<path d="M28.9883 23.2715C28.9883 23.2715 24.274 30.9712 19.0333 32.4789" stroke="#3B3B3B" stroke-linecap="round" stroke-linejoin="round"/>
<path d="M30.5977 25.7949C30.5977 25.7949 28.4025 26.9214 26.9518 26.3964" stroke="#3B3B3B" stroke-linecap="round" stroke-linejoin="round"/>
<path d="M25.9844 24.4961C25.9844 24.4961 24.829 26.1607 25.7633 27.4157" stroke="#3B3B3B" stroke-linecap="round" stroke-linejoin="round"/>
<path d="M8.70264 19.4701C12.1323 20.5659 12.8848 24.7292 13.3761 26.9762C13.9761 29.7202 14.9599 31.371 15.4017 32.0101C15.4935 32.1429 15.413 32.3327 15.2518 32.34C13.7285 32.4096 7.95424 32.3883 4.66776 28.3855C0.858372 23.7457 3.7893 20.6198 3.7893 20.6198" stroke="#3B3B3B" stroke-linecap="round" stroke-linejoin="round"/>
<path d="M9.67578 26.8457C9.67578 26.8457 4.06031 19.7762 4.44184 14.3364" stroke="#3B3B3B" stroke-linecap="round" stroke-linejoin="round"/>
<path d="M6.75586 27.4922C6.75586 27.4922 6.45073 25.0438 7.44146 23.8612" stroke="#3B3B3B" stroke-linecap="round" stroke-linejoin="round"/>
<path d="M9.55469 23.6055C9.55469 23.6055 8.38739 21.9491 6.88804 22.3963" stroke="#3B3B3B" stroke-linecap="round" stroke-linejoin="round"/>
<path d="M21.9782 12.2955C19.1728 14.5522 15.2848 12.8843 13.1394 12.055C10.5194 11.0424 8.5998 10.9528 7.823 10.9689C7.66166 10.9722 7.54767 10.8004 7.63042 10.6619C8.41239 9.35275 11.6143 4.54751 16.7659 4.01325C22.7371 3.39397 23.7285 7.56273 23.7285 7.56273" stroke="#3B3B3B" stroke-linecap="round" stroke-linejoin="round"/>
<path d="M15.2891 9.04102C15.2891 9.04102 24.2831 8.25491 28.6107 11.5729" stroke="#3B3B3B" stroke-linecap="round" stroke-linejoin="round"/>
<path d="M16.3613 6.24805C16.3613 6.24805 18.572 7.34363 19.0123 8.82227" stroke="#3B3B3B" stroke-linecap="round" stroke-linejoin="round"/>
<path d="M18.0586 10.7266C18.0586 10.7266 20.084 10.6662 20.5378 9.1688" stroke="#3B3B3B" stroke-linecap="round" stroke-linejoin="round"/>
</svg>
